<svg xmlns="http://www.w3.org/2000/svg" width="1200" height="900" viewBox="0 0 1200 900">
  <defs>
    <linearGradient id="bg" x1="0" y1="0" x2="1" y2="1">
      <stop offset="0" stop-color="#f8fafc"/>
      <stop offset="1" stop-color="#e0f2fe"/>
    </linearGradient>
    <linearGradient id="car" x1="0" y1="0" x2="1" y2="1">
      <stop offset="0" stop-color="#0891b2"/>
      <stop offset="1" stop-color="#0ea5e9"/>
    </linearGradient>
    <filter id="shadow" x="-20%" y="-20%" width="140%" height="140%">
      <feDropShadow dx="0" dy="25" stdDeviation="25" flood-color="#0f172a" flood-opacity=".25"/>
    </filter>
  </defs>
  <rect width="1200" height="900" fill="url(#bg)"/>
  <circle cx="980" cy="160" r="180" fill="#0891b2" opacity=".12"/>
  <circle cx="180" cy="760" r="220" fill="#0ea5e9" opacity=".12"/>
  <rect x="90" y="95" width="1020" height="710" rx="58" fill="#ffffff" opacity=".72"/>
  <g filter="url(#shadow)">
    <path d="M260 515 C300 420 380 360 490 350 L710 350 C810 355 910 415 955 515 L1005 535 C1035 548 1055 576 1055 608 L1055 652 C1055 675 1036 694 1013 694 L198 694 C175 694 156 675 156 652 L156 610 C156 578 177 548 207 536 Z" fill="url(#car)"/>
    <path d="M397 386 L503 386 C535 386 559 395 582 421 L640 488 L339 488 L362 429 C371 405 381 386 397 386 Z" fill="#dbeafe" opacity=".95"/>
    <path d="M604 386 L703 386 C763 390 824 429 862 488 L671 488 L610 416 C603 407 600 397 604 386 Z" fill="#bfdbfe" opacity=".9"/>
    <rect x="238" y="545" width="155" height="34" rx="17" fill="#f8fafc" opacity=".78"/>
    <rect x="827" y="545" width="105" height="34" rx="17" fill="#fef3c7" opacity=".95"/>
    <circle cx="345" cy="694" r="76" fill="#0f172a"/>
    <circle cx="345" cy="694" r="38" fill="#94a3b8"/>
    <circle cx="860" cy="694" r="76" fill="#0f172a"/>
    <circle cx="860" cy="694" r="38" fill="#94a3b8"/>
  </g>
  <rect x="96" y="92" width="245" height="56" rx="28" fill="#0f172a"/>
  <text x="122" y="128" font-family="Arial, Helvetica, sans-serif" font-size="22" font-weight="800" fill="#ffffff">Dubai Global Express</text>
  <text x="100" y="224" font-family="Arial, Helvetica, sans-serif" font-size="58" font-weight="900" fill="#0f172a">Suzuki Swift 2015</text>
  <text x="102" y="278" font-family="Arial, Helvetica, sans-serif" font-size="28" font-weight="700" fill="#475569">Suzuki • Prix catalogue $1600</text>
  <text x="100" y="830" font-family="Arial, Helvetica, sans-serif" font-size="24" font-weight="800" fill="#0ea5e9">Image locale modifiable dans public/images/cars/</text>
</svg>